<svg width="337" height="217" viewBox="0 0 337 217" fill="none" xmlns="http://www.w3.org/2000/svg">
<path d="M43.2174 148.176H19.7744L16.0164 159.283H0L22.2683 93.3139H31.4959L40.4436 93.1883L63.1708 159.283H46.9755L43.2174 148.176ZM39.2804 136.353L31.4959 110.117L23.8009 136.353H39.2804Z" fill="black"/>
<path d="M80.4521 116.378C81.8837 114.049 83.9417 112.168 86.626 110.735C89.3103 109.302 92.3823 108.586 95.8421 108.586C99.958 108.586 103.686 109.631 107.027 111.721C110.367 113.811 112.992 116.796 114.901 120.678C116.869 124.559 117.853 129.068 117.853 134.203C117.853 139.339 116.869 143.877 114.901 147.818C112.992 151.7 110.367 154.715 107.027 156.865C103.686 158.955 99.958 160 95.8421 160C92.3227 160 89.2506 159.313 86.626 157.94C84.0013 156.507 81.9434 154.626 80.4521 152.297V159.283H65.1515V93H80.4521V116.378ZM102.284 134.203C102.284 130.381 101.211 127.396 99.0633 125.246C96.9755 123.037 94.3807 121.932 91.2788 121.932C88.2366 121.932 85.6417 123.037 83.4943 125.246C81.4065 127.455 80.3626 130.471 80.3626 134.293C80.3626 138.115 81.4065 141.13 83.4943 143.34C85.6417 145.549 88.2366 146.654 91.2788 146.654C94.321 146.654 96.9158 145.549 99.0633 143.34C101.211 141.07 102.284 138.025 102.284 134.203Z" fill="black"/>
<path d="M136.245 116.378C137.676 114.049 139.734 112.168 142.419 110.735C145.103 109.302 148.175 108.586 151.635 108.586C155.751 108.586 159.479 109.631 162.82 111.721C166.16 113.811 168.785 116.796 170.693 120.678C172.662 124.559 173.646 129.068 173.646 134.203C173.646 139.339 172.662 143.877 170.693 147.818C168.785 151.7 166.16 154.715 162.82 156.865C159.479 158.955 155.751 160 151.635 160C148.115 160 145.043 159.313 142.419 157.94C139.794 156.507 137.736 154.626 136.245 152.297V159.283H120.944V93H136.245V116.378ZM158.077 134.203C158.077 130.381 157.004 127.396 154.856 125.246C152.768 123.037 150.173 121.932 147.072 121.932C144.029 121.932 141.434 123.037 139.287 125.246C137.199 127.455 136.155 130.471 136.155 134.293C136.155 138.115 137.199 141.13 139.287 143.34C141.434 145.549 144.029 146.654 147.072 146.654C150.114 146.654 152.709 145.549 154.856 143.34C157.004 141.07 158.077 138.025 158.077 134.203Z" fill="black"/>
<path d="M202.676 160C197.785 160 193.371 158.955 189.434 156.865C185.556 154.775 182.484 151.789 180.217 147.908C178.01 144.026 176.907 139.488 176.907 134.293C176.907 129.157 178.04 124.649 180.307 120.767C182.574 116.826 185.676 113.811 189.613 111.721C193.549 109.631 197.964 108.586 202.855 108.586C207.746 108.586 212.161 109.631 216.098 111.721C220.035 113.811 223.137 116.826 225.403 120.767C227.67 124.649 228.803 129.157 228.803 134.293C228.803 139.428 227.64 143.967 225.314 147.908C223.047 151.789 219.915 154.775 215.919 156.865C211.982 158.955 207.568 160 202.676 160ZM202.676 146.743C205.599 146.743 208.075 145.668 210.103 143.519C212.191 141.369 213.234 138.294 213.234 134.293C213.234 130.292 212.22 127.217 210.192 125.067C208.224 122.917 205.778 121.842 202.855 121.842C199.873 121.842 197.397 122.917 195.428 125.067C193.46 127.157 192.476 130.232 192.476 134.293C192.476 138.294 193.43 141.369 195.339 143.519C197.308 145.668 199.753 146.743 202.676 146.743Z" fill="black"/>
<path d="M281.286 109.302V159.283H265.986V152.476C264.435 154.685 262.317 156.477 259.633 157.85C257.008 159.164 254.085 159.821 250.864 159.821C247.046 159.821 243.676 158.985 240.753 157.313C237.83 155.581 235.563 153.103 233.953 149.878C232.342 146.654 231.537 142.862 231.537 138.503V109.302H246.748V136.443C246.748 139.787 247.613 142.384 249.343 144.235C251.073 146.086 253.399 147.012 256.322 147.012C259.305 147.012 261.661 146.086 263.391 144.235C265.121 142.384 265.986 139.787 265.986 136.443V109.302H281.286Z" fill="black"/>
<path d="M284.298 134.203C284.298 129.068 285.252 124.559 287.161 120.678C289.13 116.796 291.784 113.811 295.125 111.721C298.465 109.631 302.193 108.586 306.309 108.586C309.59 108.586 312.573 109.272 315.257 110.646C318.001 112.019 320.148 113.87 321.699 116.199V93H337V159.283H321.699V152.118C320.268 154.506 318.21 156.417 315.525 157.85C312.901 159.283 309.829 160 306.309 160C302.193 160 298.465 158.955 295.125 156.865C291.784 154.715 289.13 151.7 287.161 147.818C285.252 143.877 284.298 139.339 284.298 134.203ZM321.699 134.293C321.699 130.471 320.626 127.455 318.478 125.246C316.39 123.037 313.825 121.932 310.783 121.932C307.741 121.932 305.146 123.037 302.999 125.246C300.911 127.396 299.867 130.381 299.867 134.203C299.867 138.025 300.911 141.07 302.999 143.34C305.146 145.549 307.741 146.654 310.783 146.654C313.825 146.654 316.39 145.549 318.478 143.34C320.626 141.13 321.699 138.115 321.699 134.293Z" fill="black"/>
<path d="M69.4523 8.56613V69.3078H54.7286V32.8801L41.2103 69.3078H29.3281L15.7237 32.7936V69.3078H1V8.56613H18.3929L35.3553 50.6181L52.1455 8.56613H69.4523Z" fill="black"/>
<path d="M119.591 44.3881C119.591 45.7726 119.504 47.2147 119.332 48.7145H86.0102C86.2398 51.7141 87.1869 54.0214 88.8516 55.6366C90.5736 57.1941 92.6688 57.9728 95.1371 57.9728C98.8109 57.9728 101.365 56.4153 102.8 53.3004H118.471C117.668 56.473 116.204 59.3284 114.08 61.8665C112.013 64.4046 109.402 66.3947 106.244 67.8368C103.087 69.2789 99.5571 70 95.6537 70C90.9468 70 86.7564 68.9905 83.0826 66.9716C79.4089 64.9526 76.5388 62.0684 74.4723 58.3189C72.4058 54.5694 71.3726 50.1854 71.3726 45.1669C71.3726 40.1483 72.3771 35.7643 74.3862 32.0148C76.4527 28.2653 79.3228 25.3811 82.9965 23.3622C86.6703 21.3432 90.8894 20.3337 95.6537 20.3337C100.303 20.3337 104.436 21.3144 108.053 23.2757C111.669 25.2369 114.482 28.0346 116.491 31.6687C118.557 35.3028 119.591 39.5426 119.591 44.3881ZM104.522 40.4944C104.522 37.9563 103.661 35.9374 101.939 34.4376C100.217 32.9378 98.0646 32.1879 95.4815 32.1879C93.0132 32.1879 90.9181 32.9089 89.196 34.3511C87.5313 35.7932 86.4981 37.841 86.0963 40.4944H104.522Z" fill="black"/>
<path d="M136.341 29.0729C138.064 26.4194 140.216 24.3428 142.799 22.843C145.382 21.2855 148.252 20.5068 151.41 20.5068V36.1681H147.363C143.689 36.1681 140.934 36.9757 139.097 38.5909C137.26 40.1483 136.341 42.9172 136.341 46.8974V69.3078H121.618V21.026H136.341V29.0729Z" fill="black"/>
<path d="M167.431 29.0729C169.153 26.4194 171.305 24.3428 173.888 22.843C176.472 21.2855 179.342 20.5068 182.499 20.5068V36.1681H178.452C174.778 36.1681 172.023 36.9757 170.186 38.5909C168.349 40.1483 167.431 42.9172 167.431 46.8974V69.3078H152.707V21.026H167.431V29.0729Z" fill="black"/>
<path d="M191.201 16.0074C188.618 16.0074 186.494 15.2575 184.829 13.7577C183.222 12.2002 182.418 10.2967 182.418 8.04698C182.418 5.7396 183.222 3.83601 184.829 2.33622C186.494 0.778739 188.618 0 191.201 0C193.727 0 195.793 0.778739 197.4 2.33622C199.065 3.83601 199.897 5.7396 199.897 8.04698C199.897 10.2967 199.065 12.2002 197.4 13.7577C195.793 15.2575 193.727 16.0074 191.201 16.0074ZM198.52 21.026V69.3078H183.796V21.026H198.52Z" fill="black"/>
<path d="M200.522 45.0803C200.522 40.1195 201.441 35.7643 203.278 32.0148C205.172 28.2653 207.726 25.3811 210.941 23.3622C214.155 21.3432 217.743 20.3337 221.704 20.3337C225.09 20.3337 228.047 21.026 230.572 22.4104C233.155 23.7948 235.136 25.6119 236.513 27.8616V21.026H251.237V69.3078H236.513V62.4722C235.078 64.7219 233.069 66.5389 230.486 67.9234C227.961 69.3078 225.004 70 221.618 70C217.714 70 214.155 68.9905 210.941 66.9716C207.726 64.8949 205.172 61.9819 203.278 58.2324C201.441 54.4252 200.522 50.0412 200.522 45.0803ZM236.513 45.1669C236.513 41.4751 235.48 38.562 233.414 36.4277C231.405 34.2934 228.936 33.2262 226.009 33.2262C223.081 33.2262 220.584 34.2934 218.518 36.4277C216.509 38.5043 215.504 41.3885 215.504 45.0803C215.504 48.7721 216.509 51.7141 218.518 53.9061C220.584 56.0404 223.081 57.1075 226.009 57.1075C228.936 57.1075 231.405 56.0404 233.414 53.9061C235.48 51.7717 236.513 48.8587 236.513 45.1669Z" fill="black"/>
<path d="M317.455 20.5068C323.424 20.5068 328.16 22.3239 331.662 25.958C335.221 29.5921 337 34.6395 337 41.1001V69.3078H322.362V43.0902C322.362 39.9753 321.53 37.5814 319.865 35.9085C318.258 34.178 316.02 33.3127 313.149 33.3127C310.279 33.3127 308.012 34.178 306.347 35.9085C304.74 37.5814 303.936 39.9753 303.936 43.0902V69.3078H289.299V43.0902C289.299 39.9753 288.466 37.5814 286.802 35.9085C285.194 34.178 282.956 33.3127 280.086 33.3127C277.216 33.3127 274.948 34.178 273.283 35.9085C271.676 37.5814 270.873 39.9753 270.873 43.0902V69.3078H256.149V21.026H270.873V27.0828C272.365 25.0639 274.317 23.4775 276.728 22.3239C279.138 21.1125 281.865 20.5068 284.907 20.5068C288.524 20.5068 291.738 21.2855 294.551 22.843C297.421 24.4005 299.66 26.6213 301.267 29.5056C302.932 26.8521 305.199 24.6889 308.069 23.0161C310.939 21.3432 314.068 20.5068 317.455 20.5068Z" fill="black"/>
<path d="M9.41604 181.588C12.0654 181.588 14.3806 182.12 16.3617 183.183C18.3428 184.246 19.8704 185.744 20.9444 187.678C22.0424 189.586 22.5913 191.797 22.5913 194.31C22.5913 196.799 22.0424 199.01 20.9444 200.943C19.8704 202.876 18.3309 204.375 16.3259 205.438C14.3448 206.501 12.0416 207.033 9.41604 207.033H0V181.588H9.41604ZM9.02222 201.668C11.3374 201.668 13.1395 201.028 14.4284 199.747C15.7173 198.467 16.3617 196.654 16.3617 194.31C16.3617 191.967 15.7173 190.142 14.4284 188.837C13.1395 187.533 11.3374 186.88 9.02222 186.88H6.12222V201.668H9.02222Z" fill="black"/>
<path d="M32.2323 184.705C31.1582 184.705 30.2751 184.391 29.5829 183.763C28.9146 183.111 28.5804 182.313 28.5804 181.371C28.5804 180.404 28.9146 179.607 29.5829 178.979C30.2751 178.326 31.1582 178 32.2323 178C33.2825 178 34.1417 178.326 34.8101 178.979C35.5022 179.607 35.8483 180.404 35.8483 181.371C35.8483 182.313 35.5022 183.111 34.8101 183.763C34.1417 184.391 33.2825 184.705 32.2323 184.705ZM35.2755 186.808V207.033H29.1533V186.808H35.2755Z" fill="black"/>
<path d="M50.4429 186.518C51.8511 186.518 53.0803 186.808 54.1305 187.388C55.2046 187.967 56.0281 188.729 56.6009 189.671V186.808H62.7231V206.996C62.7231 208.857 62.3532 210.536 61.6132 212.034C60.8972 213.557 59.7873 214.765 58.2836 215.659C56.8038 216.553 54.954 217 52.7342 217C49.7746 217 47.3758 216.287 45.5379 214.862C43.7001 213.46 42.6499 211.551 42.3873 209.135H48.4379C48.6289 209.908 49.0824 210.512 49.7984 210.947C50.5145 211.406 51.3976 211.636 52.4478 211.636C53.7128 211.636 54.7153 211.261 55.4552 210.512C56.219 209.787 56.6009 208.615 56.6009 206.996V204.133C56.0042 205.075 55.1807 205.849 54.1305 206.453C53.0803 207.033 51.8511 207.322 50.4429 207.322C48.796 207.322 47.3042 206.9 45.9676 206.054C44.631 205.184 43.5688 203.964 42.7812 202.393C42.0174 200.798 41.6355 198.962 41.6355 196.884C41.6355 194.806 42.0174 192.981 42.7812 191.411C43.5688 189.84 44.631 188.632 45.9676 187.786C47.3042 186.941 48.796 186.518 50.4429 186.518ZM56.6009 196.92C56.6009 195.374 56.1713 194.153 55.312 193.259C54.4766 192.365 53.4503 191.918 52.233 191.918C51.0157 191.918 49.9775 192.365 49.1182 193.259C48.2828 194.129 47.8651 195.337 47.8651 196.884C47.8651 198.43 48.2828 199.663 49.1182 200.581C49.9775 201.475 51.0157 201.922 52.233 201.922C53.4503 201.922 54.4766 201.475 55.312 200.581C56.1713 199.687 56.6009 198.467 56.6009 196.92Z" fill="black"/>
<path d="M73.3718 184.705C72.2978 184.705 71.4146 184.391 70.7225 183.763C70.0542 183.111 69.72 182.313 69.72 181.371C69.72 180.404 70.0542 179.607 70.7225 178.979C71.4146 178.326 72.2978 178 73.3718 178C74.4221 178 75.2813 178.326 75.9496 178.979C76.6418 179.607 76.9879 180.404 76.9879 181.371C76.9879 182.313 76.6418 183.111 75.9496 183.763C75.2813 184.391 74.4221 184.705 73.3718 184.705ZM76.4151 186.808V207.033H70.2928V186.808H76.4151Z" fill="black"/>
<path d="M95.1269 201.777V207.033H92.0121C89.7923 207.033 88.0619 206.489 86.8207 205.401C85.5796 204.29 84.959 202.49 84.959 200.001V191.954H82.5244V186.808H84.959V181.878H91.0812V186.808H95.0911V191.954H91.0812V200.073C91.0812 200.678 91.2244 201.112 91.5108 201.378C91.7973 201.644 92.2746 201.777 92.9429 201.777H95.1269Z" fill="black"/>
<path d="M100.46 196.884C100.46 194.806 100.842 192.981 101.606 191.411C102.394 189.84 103.456 188.632 104.792 187.786C106.129 186.941 107.621 186.518 109.268 186.518C110.676 186.518 111.905 186.808 112.955 187.388C114.029 187.967 114.853 188.729 115.426 189.671V186.808H121.548V207.033H115.426V204.169C114.829 205.112 113.994 205.873 112.92 206.453C111.869 207.033 110.64 207.322 109.232 207.322C107.609 207.322 106.129 206.9 104.792 206.054C103.456 205.184 102.394 203.964 101.606 202.393C100.842 200.798 100.46 198.962 100.46 196.884ZM115.426 196.92C115.426 195.374 114.996 194.153 114.137 193.259C113.301 192.365 112.275 191.918 111.058 191.918C109.841 191.918 108.802 192.365 107.943 193.259C107.108 194.129 106.69 195.337 106.69 196.884C106.69 198.43 107.108 199.663 107.943 200.581C108.802 201.475 109.841 201.922 111.058 201.922C112.275 201.922 113.301 201.475 114.137 200.581C114.996 199.687 115.426 198.467 115.426 196.92Z" fill="black"/>
<path d="M135.24 180.211V207.033H129.118V180.211H135.24Z" fill="black"/>
<path d="M162.961 181.588C165.61 181.588 167.925 182.12 169.907 183.183C171.888 184.246 173.415 185.744 174.489 187.678C175.587 189.586 176.136 191.797 176.136 194.31C176.136 196.799 175.587 199.01 174.489 200.943C173.415 202.876 171.876 204.375 169.871 205.438C167.89 206.501 165.586 207.033 162.961 207.033H153.545V181.588H162.961ZM162.567 201.668C164.882 201.668 166.684 201.028 167.973 199.747C169.262 198.467 169.907 196.654 169.907 194.31C169.907 191.967 169.262 190.142 167.973 188.837C166.684 187.533 164.882 186.88 162.567 186.88H159.667V201.668H162.567Z" fill="black"/>
<path d="M201.53 196.594C201.53 197.174 201.494 197.778 201.423 198.406H187.567C187.663 199.663 188.057 200.629 188.749 201.306C189.465 201.958 190.336 202.284 191.362 202.284C192.89 202.284 193.952 201.632 194.549 200.327H201.065C200.731 201.656 200.122 202.852 199.239 203.915C198.38 204.979 197.294 205.812 195.981 206.416C194.668 207.02 193.2 207.322 191.577 207.322C189.62 207.322 187.878 206.9 186.35 206.054C184.822 205.208 183.629 204 182.77 202.429C181.91 200.859 181.481 199.022 181.481 196.92C181.481 194.818 181.898 192.981 182.734 191.411C183.593 189.84 184.787 188.632 186.314 187.786C187.842 186.941 189.596 186.518 191.577 186.518C193.51 186.518 195.229 186.928 196.733 187.75C198.236 188.572 199.406 189.743 200.241 191.266C201.101 192.788 201.53 194.564 201.53 196.594ZM195.265 194.963C195.265 193.9 194.907 193.054 194.191 192.426C193.475 191.797 192.58 191.483 191.505 191.483C190.479 191.483 189.608 191.785 188.892 192.389C188.2 192.993 187.77 193.851 187.603 194.963H195.265Z" fill="black"/>
<path d="M216.028 207.322C214.285 207.322 212.734 207.02 211.373 206.416C210.013 205.812 208.939 204.991 208.151 203.952C207.363 202.888 206.922 201.704 206.826 200.4H212.877C212.949 201.1 213.271 201.668 213.844 202.103C214.417 202.538 215.121 202.756 215.956 202.756C216.72 202.756 217.305 202.611 217.71 202.321C218.14 202.007 218.355 201.608 218.355 201.125C218.355 200.545 218.056 200.122 217.46 199.856C216.863 199.566 215.896 199.252 214.56 198.914C213.128 198.575 211.934 198.225 210.98 197.862C210.025 197.476 209.201 196.884 208.509 196.086C207.817 195.265 207.471 194.165 207.471 192.788C207.471 191.628 207.781 190.577 208.402 189.635C209.046 188.668 209.977 187.907 211.194 187.351C212.435 186.796 213.903 186.518 215.598 186.518C218.104 186.518 220.073 187.146 221.505 188.402C222.961 189.659 223.797 191.326 224.012 193.404H218.355C218.259 192.704 217.949 192.148 217.424 191.737C216.923 191.326 216.254 191.121 215.419 191.121C214.703 191.121 214.154 191.266 213.772 191.556C213.39 191.822 213.199 192.196 213.199 192.679C213.199 193.259 213.498 193.694 214.094 193.984C214.715 194.274 215.67 194.564 216.959 194.854C218.438 195.241 219.644 195.627 220.575 196.014C221.505 196.376 222.317 196.98 223.009 197.826C223.725 198.648 224.095 199.759 224.119 201.161C224.119 202.345 223.785 203.408 223.117 204.35C222.472 205.269 221.529 205.993 220.288 206.525C219.071 207.057 217.651 207.322 216.028 207.322Z" fill="black"/>
<path d="M234.084 184.705C233.01 184.705 232.127 184.391 231.435 183.763C230.766 183.111 230.432 182.313 230.432 181.371C230.432 180.404 230.766 179.607 231.435 178.979C232.127 178.326 233.01 178 234.084 178C235.134 178 235.994 178.326 236.662 178.979C237.354 179.607 237.7 180.404 237.7 181.371C237.7 182.313 237.354 183.111 236.662 183.763C235.994 184.391 235.134 184.705 234.084 184.705ZM237.127 186.808V207.033H231.005V186.808H237.127Z" fill="black"/>
<path d="M252.295 186.518C253.703 186.518 254.932 186.808 255.982 187.388C257.056 187.967 257.88 188.729 258.453 189.671V186.808H264.575V206.996C264.575 208.857 264.205 210.536 263.465 212.034C262.749 213.557 261.639 214.765 260.135 215.659C258.656 216.553 256.806 217 254.586 217C251.626 217 249.228 216.287 247.39 214.862C245.552 213.46 244.502 211.551 244.239 209.135H250.29C250.481 209.908 250.934 210.512 251.65 210.947C252.366 211.406 253.249 211.636 254.3 211.636C255.565 211.636 256.567 211.261 257.307 210.512C258.071 209.787 258.453 208.615 258.453 206.996V204.133C257.856 205.075 257.033 205.849 255.982 206.453C254.932 207.033 253.703 207.322 252.295 207.322C250.648 207.322 249.156 206.9 247.819 206.054C246.483 205.184 245.421 203.964 244.633 202.393C243.869 200.798 243.487 198.962 243.487 196.884C243.487 194.806 243.869 192.981 244.633 191.411C245.421 189.84 246.483 188.632 247.819 187.786C249.156 186.941 250.648 186.518 252.295 186.518ZM258.453 196.92C258.453 195.374 258.023 194.153 257.164 193.259C256.328 192.365 255.302 191.918 254.085 191.918C252.868 191.918 251.829 192.365 250.97 193.259C250.135 194.129 249.717 195.337 249.717 196.884C249.717 198.43 250.135 199.663 250.97 200.581C251.829 201.475 252.868 201.922 254.085 201.922C255.302 201.922 256.328 201.475 257.164 200.581C258.023 199.687 258.453 198.467 258.453 196.92Z" fill="black"/>
<path d="M284.318 186.59C286.657 186.59 288.518 187.363 289.903 188.91C291.311 190.432 292.015 192.534 292.015 195.217V207.033H285.929V196.05C285.929 194.697 285.583 193.646 284.89 192.897C284.198 192.148 283.267 191.773 282.098 191.773C280.928 191.773 279.997 192.148 279.305 192.897C278.613 193.646 278.267 194.697 278.267 196.05V207.033H272.145V186.808H278.267V189.49C278.887 188.596 279.723 187.895 280.773 187.388C281.823 186.856 283.005 186.59 284.318 186.59Z" fill="black"/>
<path d="M318.242 196.594C318.242 197.174 318.206 197.778 318.135 198.406H304.279C304.375 199.663 304.768 200.629 305.461 201.306C306.177 201.958 307.048 202.284 308.074 202.284C309.602 202.284 310.664 201.632 311.261 200.327H317.777C317.442 201.656 316.834 202.852 315.951 203.915C315.091 204.979 314.005 205.812 312.693 206.416C311.38 207.02 309.912 207.322 308.289 207.322C306.332 207.322 304.589 206.9 303.062 206.054C301.534 205.208 300.341 204 299.482 202.429C298.622 200.859 298.193 199.022 298.193 196.92C298.193 194.818 298.61 192.981 299.446 191.411C300.305 189.84 301.498 188.632 303.026 187.786C304.554 186.941 306.308 186.518 308.289 186.518C310.222 186.518 311.941 186.928 313.445 187.75C314.948 188.572 316.118 189.743 316.953 191.266C317.812 192.788 318.242 194.564 318.242 196.594ZM311.977 194.963C311.977 193.9 311.619 193.054 310.903 192.426C310.186 191.797 309.291 191.483 308.217 191.483C307.191 191.483 306.32 191.785 305.604 192.389C304.912 192.993 304.482 193.851 304.315 194.963H311.977Z" fill="black"/>
<path d="M330.735 190.178C331.451 189.067 332.346 188.197 333.42 187.569C334.494 186.916 335.687 186.59 337 186.59V193.151H335.317C333.79 193.151 332.644 193.489 331.88 194.165C331.116 194.818 330.735 195.978 330.735 197.645V207.033H324.612V186.808H330.735V190.178Z" fill="black"/>
</svg>
